<mxfile host="app.diagrams.net" agent="Mozilla/5.0 (Windows NT 10.0; Win64; x64) AppleWebKit/537.36 (KHTML, like Gecko) Chrome/133.0.0.0 Safari/537.36 Edg/133.0.0.0" version="26.2.7">
  <diagram name="第 1 页" id="Vsl6yanM-ken8Oz8B7k9">
    <mxGraphModel dx="655" dy="454" grid="1" gridSize="10" guides="1" tooltips="1" connect="1" arrows="1" fold="1" page="1" pageScale="1" pageWidth="827" pageHeight="1169" math="0" shadow="0">
      <root>
        <mxCell id="0" />
        <mxCell id="1" parent="0" />
        <mxCell id="RXHgrX1tcpkG_nfDHZf6-3" style="edgeStyle=orthogonalEdgeStyle;rounded=0;orthogonalLoop=1;jettySize=auto;html=1;exitX=0.5;exitY=1;exitDx=0;exitDy=0;" edge="1" parent="1" source="GZZXTo1ldOV116bjKjDO-6">
          <mxGeometry relative="1" as="geometry">
            <mxPoint x="518.8461538461538" y="330" as="targetPoint" />
          </mxGeometry>
        </mxCell>
        <mxCell id="GZZXTo1ldOV116bjKjDO-6" value="A = [95,94,91,98,99,90,99,93,91,92]" style="rounded=0;whiteSpace=wrap;html=1;" parent="1" vertex="1">
          <mxGeometry x="414" y="170" width="210" height="40" as="geometry" />
        </mxCell>
        <mxCell id="RXHgrX1tcpkG_nfDHZf6-2" style="edgeStyle=orthogonalEdgeStyle;rounded=0;orthogonalLoop=1;jettySize=auto;html=1;exitX=1;exitY=0.5;exitDx=0;exitDy=0;" edge="1" parent="1" source="RXHgrX1tcpkG_nfDHZf6-1">
          <mxGeometry relative="1" as="geometry">
            <mxPoint x="580" y="330" as="targetPoint" />
          </mxGeometry>
        </mxCell>
        <mxCell id="RXHgrX1tcpkG_nfDHZf6-1" value="C = [0, 0,&amp;nbsp;0,&amp;nbsp;0,&amp;nbsp;0,&amp;nbsp;0,&amp;nbsp;0,&amp;nbsp;0,&amp;nbsp;0]&amp;nbsp;&amp;nbsp;" style="rounded=0;whiteSpace=wrap;html=1;" vertex="1" parent="1">
          <mxGeometry x="250" y="310" width="210" height="40" as="geometry" />
        </mxCell>
        <mxCell id="RXHgrX1tcpkG_nfDHZf6-6" style="edgeStyle=orthogonalEdgeStyle;rounded=0;orthogonalLoop=1;jettySize=auto;html=1;exitX=1;exitY=0.25;exitDx=0;exitDy=0;" edge="1" parent="1">
          <mxGeometry relative="1" as="geometry">
            <mxPoint x="850" y="300" as="targetPoint" />
            <mxPoint x="790" y="330" as="sourcePoint" />
          </mxGeometry>
        </mxCell>
        <mxCell id="RXHgrX1tcpkG_nfDHZf6-7" style="edgeStyle=orthogonalEdgeStyle;rounded=0;orthogonalLoop=1;jettySize=auto;html=1;exitX=1;exitY=0.75;exitDx=0;exitDy=0;" edge="1" parent="1">
          <mxGeometry relative="1" as="geometry">
            <mxPoint x="850" y="360" as="targetPoint" />
            <mxPoint x="790" y="330" as="sourcePoint" />
          </mxGeometry>
        </mxCell>
        <mxCell id="RXHgrX1tcpkG_nfDHZf6-4" value="C = [1, 2, 1, 1, 1, 1,&amp;nbsp;0, 0, 1, 2]&amp;nbsp;&amp;nbsp;" style="rounded=0;whiteSpace=wrap;html=1;" vertex="1" parent="1">
          <mxGeometry x="580" y="310" width="210" height="40" as="geometry" />
        </mxCell>
        <mxCell id="RXHgrX1tcpkG_nfDHZf6-8" value="B = [90,91,91,92,93,94,95,98,99,99]" style="rounded=0;whiteSpace=wrap;html=1;" vertex="1" parent="1">
          <mxGeometry x="820" y="260" width="210" height="40" as="geometry" />
        </mxCell>
        <mxCell id="RXHgrX1tcpkG_nfDHZf6-9" value="C = [0, 0, 0, 0, 0, 0,&amp;nbsp;0, 0, 0, 0]&amp;nbsp;&amp;nbsp;" style="rounded=0;whiteSpace=wrap;html=1;" vertex="1" parent="1">
          <mxGeometry x="820" y="360" width="210" height="40" as="geometry" />
        </mxCell>
      </root>
    </mxGraphModel>
  </diagram>
</mxfile>
